<svg xmlns="http://www.w3.org/2000/svg" width="15.656" height="12.322" viewBox="0 0 15.656 12.322"><defs><style>.a{fill:#fff;}</style></defs><g transform="translate(0 0)"><g transform="translate(0 0)"><path class="a" d="M15.135,46.72A1.683,1.683,0,0,0,13.9,46.2h-2.47v-.03a1.336,1.336,0,0,0-.4-.967,1.362,1.362,0,0,0-.967-.4H5.6a1.372,1.372,0,0,0-1.384,1.369v.03H1.756a1.683,1.683,0,0,0-1.235.521A1.769,1.769,0,0,0,0,47.955v7.411A1.683,1.683,0,0,0,.521,56.6a1.769,1.769,0,0,0,1.235.521H13.9a1.683,1.683,0,0,0,1.235-.521,1.769,1.769,0,0,0,.521-1.235V47.955A1.683,1.683,0,0,0,15.135,46.72Zm-.253,8.646h-.015a.965.965,0,0,1-.967.967H1.756a.965.965,0,0,1-.967-.967V47.955a.965.965,0,0,1,.967-.967H4.628a.4.4,0,0,0,.4-.4v-.432a.56.56,0,0,1,.58-.58h4.45a.56.56,0,0,1,.58.58v.432a.4.4,0,0,0,.4.4h2.872a.965.965,0,0,1,.967.967Z" transform="translate(0 -44.8)"/><path class="a" d="M115.661,130.8a3.658,3.658,0,1,0,2.589,1.071A3.667,3.667,0,0,0,115.661,130.8Zm2.024,5.7a2.874,2.874,0,0,1-4.048,0,2.845,2.845,0,0,1-.833-2.024,2.908,2.908,0,0,1,.833-2.024,2.845,2.845,0,0,1,2.024-.833,2.908,2.908,0,0,1,2.024.833,2.845,2.845,0,0,1,.833,2.024A2.785,2.785,0,0,1,117.685,136.5Z" transform="translate(-107.833 -127.6)"/><circle class="a" cx="0.729" cy="0.729" r="0.729" transform="translate(12.397 3.185)"/></g></g></svg>